<svg width="152" height="26" viewBox="0 0 152 26" fill="none" xmlns="http://www.w3.org/2000/svg">
<g id="Logo Wins">
<path id="Vector" d="M96.1305 22.538C95.591 22.2421 95.1003 21.8925 94.6587 21.4891C94.2169 21.0857 93.8518 20.6644 93.5638 20.225C93.4491 20.0636 93.3702 19.9338 93.3272 19.8351C93.2841 19.7365 93.2763 19.6425 93.3038 19.5526C93.3257 19.4809 93.3728 19.4048 93.4452 19.3241C93.5172 19.2435 97.6581 15.6978 97.7453 15.6529C97.8323 15.6081 97.9105 15.5856 97.9796 15.5856C98.0573 15.5856 98.134 15.6105 98.2095 15.6596C98.285 15.709 99.0575 16.4059 99.2854 16.6481C99.8259 17.2219 100.311 17.6119 100.74 17.8181C101 17.9524 101.286 18.0197 101.597 18.0197C102.435 18.0197 102.96 17.6747 103.171 16.9843C103.254 16.7153 103.19 16.4598 102.979 16.2178C102.873 16.1001 102.658 15.9611 102.43 15.8331C102.041 15.614 101.629 15.4423 101.208 15.2992C99.3299 14.661 98.1206 13.7704 97.5796 12.6273C97.3183 12.0716 97.1967 11.4619 97.2149 10.7984C97.2327 10.1351 97.3643 9.40451 97.6093 8.60648C97.8707 7.75489 98.2805 6.97489 98.8391 6.26659C99.3974 5.5584 100.075 4.94874 100.871 4.43772C101.658 3.92671 102.533 3.53681 103.496 3.26773C104.459 2.99886 105.472 2.86426 106.534 2.86426C107.933 2.86426 109.082 3.04372 109.983 3.40222C111.028 3.82372 111.866 4.523 112.499 5.50006C112.55 5.67051 112.551 5.83629 112.502 5.99761C112.422 6.25779 112.181 6.5624 111.781 6.9121L108.821 9.50749C108.628 9.68685 108.436 9.77647 108.246 9.77647C107.996 9.77647 107.758 9.63753 107.532 9.35953C107.257 9.01896 106.897 8.72749 106.454 8.48545C106.015 8.25243 105.611 8.13576 105.24 8.13576C104.869 8.13576 104.546 8.20301 104.271 8.33739C103.925 8.50784 103.697 8.77236 103.588 9.13086C103.524 9.33715 103.535 9.51412 103.619 9.66197C103.703 9.80993 103.845 9.93758 104.045 10.0452C104.234 10.1618 105.347 10.5293 105.347 10.5293C106.342 10.8879 107.148 11.2241 107.764 11.5379C108.38 11.8518 108.876 12.2237 109.254 12.6539C109.681 13.1472 109.937 13.7412 110.022 14.4357C110.106 15.1305 109.996 15.9755 109.691 16.9706C109.374 18.0016 108.893 18.9272 108.249 19.7475C107.604 20.5677 106.831 21.265 105.929 21.8385C105.059 22.3945 104.094 22.8182 103.033 23.1093C101.973 23.4006 100.881 23.5463 99.7583 23.5463C98.5408 23.5463 97.3315 23.2101 96.1304 22.5378L96.1305 22.538Z" fill="white"/>
<g id="Group">
<path id="Vector_2" d="M2.63445 18.6484L3.95157 20.7984L5.26881 22.9485H2.63445H0L1.31723 20.7984L2.63445 18.6484Z" fill="#568EFF"/>
<path id="Vector_3" d="M14.1817 0L7.57178 10.8345L10.2158 15.2567L14.1817 8.8445L18.1476 15.2567L20.7916 10.8345L14.1817 0Z" fill="#568EFF"/>
<path id="Vector_4" d="M27.3459 3.43044C27.3011 3.41686 27.2532 3.43577 27.2282 3.4764L18.1473 18.2806L14.2701 12.055C14.2316 11.993 14.1326 11.993 14.0941 12.055L10.2168 18.2806L1.13592 3.4764C1.11099 3.43566 1.06322 3.41675 1.01827 3.43044C0.973542 3.44391 0.942749 3.48639 0.942749 3.53473V12.2908C0.942749 12.3114 0.948407 12.3315 0.959092 12.349L7.48353 23.0066C7.5028 23.038 7.53611 23.0571 7.57205 23.0571H12.8173C12.8511 23.0571 12.883 23.04 12.9027 23.0114L14.1819 21.146L15.461 23.0114C15.4807 23.0401 15.5126 23.0571 15.5464 23.0571H20.7917C20.8276 23.0571 20.8609 23.038 20.8802 23.0066L27.4046 12.349C27.4154 12.3315 27.421 12.3114 27.421 12.2908V3.53473C27.421 3.48639 27.3902 3.44391 27.3454 3.43044H27.3459Z" fill="white"/>
<path id="Vector_5" d="M25.7293 18.6484L24.4122 20.7984L23.095 22.9485H25.7293H28.3638L27.0466 20.7984L25.7293 18.6484Z" fill="#568EFF"/>
</g>
<path id="Vector_6" d="M72.8702 3.50277C72.7664 3.39077 72.6411 3.33472 72.4944 3.33472H65.1491C65.1109 3.33472 65.0757 3.35622 65.0573 3.3911C65.0389 3.42575 65.0403 3.46823 65.0607 3.50169L66.2528 5.44756L60.4931 25.4083C60.372 25.8029 60.5014 26 60.8815 26C60.8815 26 65.4841 23.6666 66.8267 22.9237C67.0502 22.8 67.2185 22.5912 67.2954 22.3408L72.9476 3.92645C72.9999 3.75633 72.9739 3.6151 72.8704 3.50288L72.8702 3.50277Z" fill="white"/>
<path id="Vector_7" d="M95.3135 3.46921C95.2459 3.3798 95.0959 3.33483 94.8627 3.33483H90.1094C89.9365 3.33483 89.7812 3.39088 89.6432 3.50288C89.5051 3.6151 89.41 3.75633 89.3577 3.92645L86.7779 12.3313L83.9846 3.75166C83.9421 3.60837 83.8709 3.50289 83.7708 3.43564C83.6704 3.3684 83.5641 3.33472 83.452 3.33472H75.3669C75.3286 3.33472 75.2934 3.35623 75.2751 3.3911C75.2567 3.42575 75.258 3.46823 75.2785 3.50169L76.6428 5.72859L71.4213 22.7396C71.3744 22.8921 71.3792 23.0243 71.4356 23.1363C71.4918 23.2485 71.6191 23.3044 71.8178 23.3044H76.5711C76.9856 23.3044 77.2534 23.1073 77.3745 22.7128L80.1359 13.7163L83.4034 22.8607C83.4593 23.1567 83.6124 23.3045 83.863 23.3045H88.8496C89.1947 23.3045 89.4158 23.1477 89.512 22.8339L95.3156 3.92656C95.3817 3.71146 95.3809 3.55916 95.3134 3.46932L95.3135 3.46921Z" fill="white"/>
<path id="Vector_8" d="M63.7229 3.33472H58.7623C58.3391 3.33472 57.9935 3.532 57.7257 3.92634L50.8864 14.8997L51.0006 10.1392L54.7598 3.92634C54.8385 3.81 54.8891 3.71581 54.9113 3.644C54.9745 3.43792 54.8723 3.33472 54.6047 3.33472H48.0769C48.0387 3.33472 48.0035 3.35623 47.9852 3.3911C47.9667 3.42575 47.9681 3.46823 47.9885 3.50169L48.4306 4.22324L42.0451 14.9266L41.9375 3.92645C41.9116 3.53211 41.6873 3.33483 41.2644 3.33483H35.3074C35.2691 3.33483 35.2339 3.35633 35.2156 3.39121C35.1972 3.42586 35.1985 3.46834 35.2189 3.5018L36.4153 5.45462L36.4301 22.7129C36.4122 22.8832 36.4676 23.0402 36.5964 23.1836C36.6494 23.2642 36.7535 23.3045 36.9089 23.3045H42.0379C42.1673 23.3045 42.2834 23.2642 42.3859 23.1836C42.5855 23.0671 42.746 22.9102 42.8671 22.7129L45.1408 19.2298L45.3086 22.5649C45.3042 22.6637 45.3101 22.778 45.3264 22.9078C45.3425 23.0377 45.3769 23.1297 45.4296 23.1835C45.4825 23.2641 45.5867 23.3044 45.7421 23.3044H50.871C51.0005 23.3044 51.1166 23.2641 51.219 23.1835C51.4187 23.067 51.5792 22.9101 51.7002 22.7128L63.8779 3.92645C63.9567 3.8101 64.0073 3.71592 64.0294 3.64411C64.0927 3.43803 63.9904 3.33483 63.7229 3.33483V3.33472Z" fill="white"/>
<g id="Group 256">
<path id="Rectangle 164" d="M115.175 8.12524H146.515L152 12.594V22.7502H120.66L115.175 17.0627V8.12524Z" fill="#568EFF"/>
<g id="VUE">
<path d="M124.151 19.5002L121.067 11.1282H122.835L125.066 17.5372L127.31 11.1282H129.078L126.006 19.5002H124.151Z" fill="#211E36"/>
<path d="M133.675 19.6302C132.564 19.6302 131.682 19.3528 131.03 18.7982C130.387 18.2348 130.065 17.4202 130.065 16.3542V11.1282H131.757V16.2242C131.757 16.8655 131.924 17.3465 132.259 17.6672C132.593 17.9792 133.065 18.1352 133.675 18.1352C134.285 18.1352 134.753 17.9792 135.079 17.6672C135.414 17.3465 135.581 16.8655 135.581 16.2242V11.1282H137.273V16.3542C137.273 17.4202 136.951 18.2348 136.308 18.7982C135.664 19.3528 134.787 19.6302 133.675 19.6302Z" fill="#211E36"/>
<path d="M138.753 19.5002V11.1282H144.545V12.4932H140.446V14.6382H144.081V15.9902H140.446V18.1482H144.545V19.5002H138.753Z" fill="#211E36"/>
</g>
</g>
</g>
</svg>
