<svg width="39" height="39" viewBox="0 0 39 39" fill="none" xmlns="http://www.w3.org/2000/svg">
<path d="M19.591 0.805664H19.59C9.08002 0.805664 0.559998 9.32568 0.559998 19.8357V19.8367C0.559998 30.3466 9.08002 38.8667 19.59 38.8667H19.591C30.101 38.8667 38.621 30.3466 38.621 19.8367V19.8357C38.621 9.32568 30.101 0.805664 19.591 0.805664Z" fill="#211E36"/>
<path d="M34.185 12.4567C33.835 11.1377 32.803 10.0987 31.492 9.74573C29.117 9.10473 19.591 9.10474 19.591 9.10474C19.591 9.10474 10.066 9.10473 7.68999 9.74573C6.37899 10.0987 5.34699 11.1367 4.99699 12.4567C4.36099 14.8477 4.36099 19.8357 4.36099 19.8357C4.36099 19.8357 4.36099 24.8237 4.99699 27.2157C5.34699 28.5347 6.37999 29.5737 7.68999 29.9257C10.066 30.5667 19.591 30.5667 19.591 30.5667C19.591 30.5667 29.116 30.5667 31.492 29.9257C32.803 29.5727 33.835 28.5347 34.185 27.2157C34.821 24.8247 34.821 19.8357 34.821 19.8357C34.821 19.8357 34.821 14.8477 34.185 12.4567Z" fill="#DDE6FF"/>
<path d="M16.475 24.3656V15.3066L24.437 19.8366L16.475 24.3656Z" fill="#211E36"/>
</svg>
