<svg viewBox="0 0 7 12" fill="none" xmlns="http://www.w3.org/2000/svg">
<path d="M2.60455 6.62079C2.57068 6.58701 2.54382 6.54688 2.52549 6.5027C2.50715 6.45852 2.49772 6.41116 2.49772 6.36333C2.49772 6.3155 2.50715 6.26814 2.52549 6.22396C2.54382 6.17978 2.57068 6.13965 2.60455 6.10588L5.93982 2.77133C6.14447 2.56678 6.25948 2.2893 6.25954 1.99995C6.25961 1.7106 6.14473 1.43307 5.94018 1.22842C5.73563 1.02377 5.45815 0.90876 5.1688 0.908691C4.87945 0.908623 4.60192 1.0235 4.39727 1.22806L1.06201 4.56333C0.585474 5.04117 0.317871 5.68848 0.317871 6.36333C0.317871 7.03818 0.585474 7.68549 1.06201 8.16333L4.39727 11.4986C4.60192 11.7032 4.87945 11.818 5.1688 11.818C5.45815 11.8179 5.73563 11.7029 5.94018 11.4982C6.14473 11.2936 6.25961 11.0161 6.25954 10.7267C6.25948 10.4374 6.14447 10.1599 5.93982 9.95533L2.60455 6.62079Z" fill="white"/>
</svg>
