<svg width="224" height="48" viewBox="0 0 224 48" fill="none" xmlns="http://www.w3.org/2000/svg">
<path d="M8.71872 8.89501L8.72821 8.8853L8.73721 8.87512L16.1068 0.535227H223.465V32.4496L216.358 39.9564L216.351 39.9634L208.986 47.4648H0.535227V17.2597L8.71872 8.89501Z" stroke="#E73387" stroke-width="1.07045"/>
<path d="M10.6491 10.2L17.2055 3H221V31.5L214.444 37.8L207.341 45H3V18L10.6491 10.2Z" fill="#E73387"/>
<path d="M84.4219 29.14C83.8152 29.14 83.2412 29.0933 82.6999 29C82.1586 28.8973 81.6966 28.7573 81.3139 28.58V26.41C81.7339 26.606 82.2006 26.7647 82.7139 26.886C83.2272 27.0073 83.7079 27.068 84.1559 27.068C84.6226 27.068 84.9726 27.0307 85.2059 26.956C85.4486 26.872 85.5699 26.69 85.5699 26.41C85.5699 26.214 85.4999 26.06 85.3599 25.948C85.2292 25.836 85.0192 25.7333 84.7299 25.64C84.4499 25.5467 84.0812 25.43 83.6239 25.29C83.0172 25.094 82.5366 24.8793 82.1819 24.646C81.8272 24.4127 81.5706 24.128 81.4119 23.792C81.2626 23.456 81.1879 23.0453 81.1879 22.56C81.1879 21.6733 81.5006 21.0013 82.1259 20.544C82.7606 20.0773 83.6986 19.844 84.9399 19.844C85.4346 19.844 85.9432 19.886 86.4659 19.97C86.9979 20.054 87.4272 20.1473 87.7539 20.25V22.434C87.3152 22.2567 86.8952 22.1307 86.4939 22.056C86.0926 21.9813 85.7146 21.944 85.3599 21.944C84.9492 21.944 84.5992 21.9767 84.3099 22.042C84.0206 22.1073 83.8759 22.2753 83.8759 22.546C83.8759 22.7793 83.9972 22.952 84.2399 23.064C84.4919 23.1667 84.9352 23.302 85.5699 23.47C86.3072 23.666 86.8672 23.904 87.2499 24.184C87.6419 24.464 87.9079 24.7907 88.0479 25.164C88.1879 25.528 88.2579 25.9433 88.2579 26.41C88.2579 27.2313 87.9406 27.894 87.3059 28.398C86.6712 28.8927 85.7099 29.14 84.4219 29.14ZM88.3246 29L91.7826 19.984H94.5686L98.0266 29H95.2826L94.5266 27.082H91.8106L91.0686 29H88.3246ZM92.1606 25.192H94.1766L93.1686 22.546L92.1606 25.192ZM99.0089 29V19.984H101.641V29H99.0089ZM102.905 29V19.984H107.595C108.333 19.984 108.935 20.1193 109.401 20.39C109.877 20.6607 110.232 21.0387 110.465 21.524C110.699 22 110.815 22.5553 110.815 23.19C110.815 23.7967 110.661 24.3333 110.353 24.8C110.055 25.2573 109.653 25.6073 109.149 25.85C109.252 25.934 109.341 26.0367 109.415 26.158C109.49 26.27 109.574 26.4287 109.667 26.634L110.703 29H107.959L107.007 26.83C106.933 26.662 106.839 26.5453 106.727 26.48C106.625 26.4053 106.475 26.368 106.279 26.368H105.537V29H102.905ZM105.537 24.352H106.923C107.306 24.352 107.6 24.254 107.805 24.058C108.02 23.8527 108.127 23.5633 108.127 23.19C108.127 22.3967 107.754 22 107.007 22H105.537V24.352Z" fill="white"/>
<path d="M141 19L139.59 20.41L142.17 23H132V25H142.17L139.59 27.58L141 29L146 24M128 17H136V15H128C126.9 15 126 15.9 126 17V31C126 32.1 126.9 33 128 33H136V31H128V17Z" fill="white"/>
</svg>
